<svg width="1080" height="664"  viewBox="0 0 1080 664"  fill="" xmlns="http://www.w3.org/2000/svg">
<path d="M287.49 656.608C216.832 631.264 178.7 624.541 105.445 624.515C45.34 624.492 34.1434 626.16 14.282 638.092C-12.0584 653.916 16.8597 610.777 48.7321 586.7C102.859 545.812 175.273 523.301 281.6 514.31C313.635 511.601 316.02 511.115 316.847 507.122C319.074 496.37 322.807 440.524 321.298 440.524C320.867 440.524 304.049 448.867 283.924 459.064C248.647 476.938 229.852 485.113 226.76 483.927C220.248 481.43 250.222 461.706 297.931 437.096C318.911 426.274 320.687 425.136 320.693 422.507C320.699 420.939 321.402 410.988 322.261 400.393C327.012 341.755 324.641 190.401 317.994 128.038C317.147 120.092 315.697 104.922 314.771 94.3276C313.846 83.733 312.368 70.4897 311.488 64.8981C310.607 59.3065 309.165 50.2259 308.284 44.7189C306.378 32.8169 307.327 31.1709 327.093 12.0864C343.812 -4.05505 345.604 -4.04378 346.802 12.2105C347.181 17.3508 348.909 40.5787 350.642 63.8279C359.947 188.629 361.152 324.017 353.505 385.411C350.857 406.67 351.007 407.356 357.357 402.937C374.707 390.864 402.255 359.332 410.536 342.07C415.602 331.509 415.538 325.311 409.704 261.272C403.414 192.233 400.096 151.262 399.306 132.853C398.474 113.473 399.186 110.99 410.61 93.4514C421.461 76.7922 423.998 76.6269 421.804 92.7223C418.115 119.789 420.873 216.216 426.763 266.088C428.781 283.179 427.568 319.761 424.722 327.622C420.554 339.134 411.816 355.236 404.106 365.613C399.951 371.205 394.872 378.364 392.82 381.522C390.768 384.681 379.777 396.479 368.396 407.741L347.703 428.217L344.287 453.901C342.408 468.028 339.944 484.236 338.81 489.92C337.677 495.604 336.749 502.284 336.749 504.764V509.273L352.544 508.531C361.232 508.122 381.832 506.855 398.323 505.714C414.815 504.573 453.365 501.958 483.992 499.902C603.274 491.897 658.979 486.041 749.146 472.028C788.563 465.902 860.591 452.95 882.35 448.074C955.883 431.598 1005.73 424.499 1047.99 424.482C1084.22 424.468 1085.59 425.284 1072.26 439.018C1060.92 450.703 1060.38 450.874 1031.73 451.691C958.205 453.788 907.094 461.673 826.665 483.327C776.233 496.906 771.888 497.772 732.789 502.049C719.045 503.552 695.753 506.211 681.029 507.958C641.889 512.601 626.737 514.055 592.148 516.492C557.515 518.932 512.192 522.681 508.086 523.445C498.175 525.288 440.274 528.151 388.686 529.347C344.425 530.374 339.016 531.044 335.374 535.945C333.638 538.281 331.745 549.247 324.923 596.478C316.069 657.784 315.194 662.531 312.556 663.543C309.843 664.583 309.329 664.441 287.49 656.608ZM302.406 618.936C304.141 613.683 312.167 559.193 312.883 547.808L313.505 537.909L295.411 537.92C246.605 537.948 205.571 542.261 179.775 550.078C130.113 565.125 105.277 575.63 94.2129 586.27L86.7047 593.49L124.185 593.534C190.541 593.615 234.071 600.405 287.673 619.04C299.8 623.256 300.982 623.248 302.406 618.936ZM59.702 501.523C60.1775 495.651 87.2837 413.501 93.0313 400.513C103.291 377.329 115.731 368.161 136.499 368.48C151.624 368.712 162.774 371.926 203.976 387.935C223.813 395.642 239.536 400.308 242.81 399.458C248.902 397.878 266.849 366.079 271.273 349.026C276.336 329.51 276.447 323.23 273.575 219.536C271.326 138.351 271.024 69.2477 272.885 61.4337C276.314 47.0397 283.834 30.9253 286.078 33.1649C287.436 34.5197 287.707 115.395 286.505 160.125C282.724 300.73 280.157 366.081 277.723 383.669C273.483 414.304 255.36 433.854 227.004 438.381C211.669 440.829 205.059 438.233 174.535 417.772C143.896 397.233 133.771 392.35 121.857 392.362C112.303 392.373 111.1 394.431 82.7442 459.252C62.6182 505.26 58.8378 512.195 59.702 501.523ZM681.558 473.816C663.701 468.077 650.671 444.121 644.054 404.863C640.931 386.337 640.953 386.364 638.076 397.803C634.253 412.997 627.201 432.964 622.746 441.206C618.141 449.726 614.848 451.045 608.294 446.996C600.344 442.086 600.696 444.909 600.875 387.551L601.036 336.184L596.306 349.561C570.489 422.572 552.77 446.651 538.346 428.325C536.121 425.498 536.12 425.498 531.71 438.725C523.203 464.234 517.82 472.362 510.228 471.158C504.912 470.314 501.066 465.613 499.467 458.003C498.191 451.93 498.6 394.734 500.112 367.753L500.682 357.587L491.707 381.665C469.074 442.385 457.767 459.544 443.004 455.571C434.85 453.377 432.055 446.524 432.055 428.723C432.055 380.488 465.877 307.007 494.001 294.14C503.957 289.585 515.42 292.795 521.045 301.714C523.478 305.573 523.475 305.835 520.523 340.999C517.254 379.944 515.617 439.406 517.724 442.665C518.295 443.548 518.769 444.029 518.779 443.735C518.788 443.441 520.52 438.384 522.627 432.498C527.573 418.685 532.075 401.172 534.831 385.031C544.434 328.783 579.974 269.272 603.928 269.332C619.186 269.37 626.046 278.904 623.822 296.979C619.042 335.825 616.227 426.731 620.006 420.191C624.819 411.861 636.226 370.002 637.118 357.396C637.444 352.792 638.188 329.281 638.772 305.149C640.365 239.361 644.258 190.222 653.739 116.266C659.238 73.3732 661.119 67.3829 668.772 68.4087C703.2 73.0234 701.684 182.721 665.585 298.99C658.098 323.107 657.333 330.039 658.937 359.27C661.987 414.863 669.415 446.731 681.738 457.093C688.248 462.567 691.048 461.983 703.048 452.649C711.7 445.919 715.041 446.426 711.618 453.949C705.263 467.913 691.498 477.011 681.558 473.816ZM455.593 429.058C467.4 415.653 487.713 371.151 499.633 332.574C504.615 316.448 504.095 315.435 495.446 324.417C471.021 349.784 442.436 415.918 448.768 432.411C449.768 435.013 450.789 434.512 455.593 429.058ZM556.762 407.115C568.022 393.969 587.776 351.019 600.071 312.953C606.621 292.671 606.091 291.033 596.42 301.671C574.869 325.376 549.933 378.946 549.47 402.534C549.267 412.88 550.929 413.925 556.762 407.115ZM665.977 262.817C674.199 230.946 680.834 194.897 683.664 166.717C685.838 145.075 684.626 109.593 681.601 106.31C679.116 103.614 667.573 191.53 662.308 253.246C659.221 289.423 659.157 289.255 665.977 262.817ZM797.968 448.254C790.253 439.734 779.651 387.422 778.965 354.494C778.94 353.252 776.803 359.526 774.218 368.436C760.364 416.181 747.864 435.121 730.179 435.163C714.756 435.2 704.627 409.963 700.762 361.872C697.43 320.414 702.754 225.506 708.94 216.071C711.477 212.201 713.572 213.135 722.248 222.005C728.609 228.51 731.828 230.915 736.779 232.866C750.431 238.244 759.323 244.843 761.813 251.443C767.462 266.417 753.896 299.222 731.416 324.947C722.241 335.446 721.824 336.905 722.579 355.912C723.843 387.747 729.873 407.349 738.402 407.349C748.761 407.349 765.498 374.138 772.648 339.394C775.04 327.77 775.072 326.519 775.228 239.869C775.383 153.509 775.875 136.448 779.612 87.9066C782.698 47.816 785.62 32.2554 790.282 31.086C794.863 29.9371 798.647 31.7001 804.177 37.5588C809.125 42.8001 809.833 43.192 813.496 42.7169C818.87 42.0198 821.982 45.4973 825.541 56.1764C838.949 96.411 830.709 156.5 797.343 261.808L790.053 284.816L790.91 305.684C793.292 363.681 794.877 390.781 795.832 389.827C796.084 389.576 796.984 380.052 797.834 368.663C804.632 277.521 810.115 248.831 822.152 241.417C831.696 235.539 831.269 233.988 841.623 312.105C845.784 343.502 846.567 346.882 850.852 351.95C856.406 358.519 858.801 354.267 868.3 320.972C874.951 297.661 876.799 292.842 879.083 292.842C887.918 292.842 865.211 380.077 853.9 389.589C841.3 400.184 833.053 382.715 822.879 323.882C816.557 287.325 816.271 286.51 814.05 298.728C810.189 319.965 807.321 358.949 805.815 410.668C805.239 430.446 804.463 447.421 804.09 448.392C803.2 450.709 800.129 450.64 797.968 448.254ZM730.496 304.079C743.353 284.945 748.366 264.283 742.323 255.322C739.488 251.117 731.08 244.424 729.346 244.992C726.808 245.823 724.063 268.522 722.652 300.333C721.868 317.991 721.323 317.73 730.496 304.079ZM798.108 227.537C821.148 146.265 826.157 83.5335 811.583 58.7831C808.568 53.6615 808.568 53.6614 807.767 57.407C804.119 74.4631 794.978 172.741 793.484 210.975C793.162 219.215 792.636 230.762 792.314 236.635C791.993 242.508 791.973 247.072 792.269 246.777C792.564 246.481 795.191 237.823 798.108 227.537Z" fill="black"/>
</svg>
